<svg width="164" height="123" viewBox="0 0 164 123" fill="none" xmlns="http://www.w3.org/2000/svg">
<path d="M164 108.158H0V108.24H164V108.158Z" fill="#E0E0E0"/>
<path d="M124.42 111.183H113.137V111.265H124.42V111.183Z" fill="#E0E0E0"/>
<path d="M137.695 110.95H131.345V111.032H137.695V110.95Z" fill="#E0E0E0"/>
<path d="M81.1271 111.144H72.7041V111.226H81.1271V111.144Z" fill="#E0E0E0"/>
<path d="M87.2121 112.308H81.459V112.39H87.2121V112.308Z" fill="#E0E0E0"/>
<path d="M47.452 110.313H30.0713V110.395H47.452V110.313Z" fill="#E0E0E0"/>
<path d="M77.7363 93.5299H14.4028C13.9067 93.529 13.4311 93.3313 13.0806 92.9802C12.7301 92.629 12.5332 92.1531 12.5332 91.657V2.62796C12.5375 2.13466 12.7363 1.66298 13.0864 1.31538C13.4364 0.967779 13.9095 0.772329 14.4028 0.771484H77.7363C78.233 0.771484 78.7094 0.968805 79.0607 1.32004C79.4119 1.67127 79.6092 2.14765 79.6092 2.64436V91.657C79.6092 92.1537 79.4119 92.6301 79.0607 92.9813C78.7094 93.3326 78.233 93.5299 77.7363 93.5299ZM14.4028 0.837085C13.9284 0.837953 13.4737 1.02702 13.1386 1.36278C12.8034 1.69854 12.6152 2.15356 12.6152 2.62796V91.657C12.6152 92.1314 12.8034 92.5864 13.1386 92.9222C13.4737 93.2579 13.9284 93.447 14.4028 93.4479H77.7363C78.211 93.447 78.666 93.258 79.0017 92.9224C79.3374 92.5867 79.5263 92.1317 79.5272 91.657V2.62796C79.5263 2.15326 79.3374 1.69825 79.0017 1.36258C78.666 1.02691 78.211 0.837952 77.7363 0.837085H14.4028Z" fill="#E0E0E0"/>
<path d="M148.685 93.5299H85.3485C84.852 93.529 84.3761 93.3314 84.0251 92.9804C83.6741 92.6293 83.4765 92.1535 83.4756 91.657V2.62796C83.4808 2.13436 83.6803 1.66269 84.0308 1.31517C84.3814 0.967664 84.8548 0.77232 85.3485 0.771484H148.685C149.178 0.773191 149.65 0.969022 150 1.31653C150.349 1.66404 150.547 2.13523 150.552 2.62796V91.657C150.552 92.1526 150.355 92.628 150.005 92.979C149.656 93.3301 149.181 93.5281 148.685 93.5299ZM85.3485 0.837085C84.8738 0.837952 84.4187 1.02691 84.0831 1.36258C83.7474 1.69825 83.5585 2.15326 83.5576 2.62796V91.657C83.5585 92.1317 83.7474 92.5867 84.0831 92.9224C84.4187 93.258 84.8738 93.447 85.3485 93.4479H148.685C149.16 93.447 149.615 93.258 149.951 92.9224C150.286 92.5867 150.475 92.1317 150.476 91.657V2.62796C150.475 2.15326 150.286 1.69825 149.951 1.36258C149.615 1.02691 149.16 0.837952 148.685 0.837085H85.3485Z" fill="#E0E0E0"/>
<path d="M142.362 8.73242H92.9326V51.2281H142.362V8.73242Z" fill="#E0E0E0"/>
<path d="M143.461 8.73242H94.0312V51.2281H143.461V8.73242Z" fill="#F0F0F0"/>
<path d="M141.489 49.2338V10.7266L96.0022 10.7266V49.2338H141.489Z" fill="#FAFAFA"/>
<path d="M126.952 49.2338V10.7266H123.98V49.2338H126.952Z" fill="#E0E0E0"/>
<path d="M111.32 49.2338V10.7266H108.349V49.2338H111.32Z" fill="#E0E0E0"/>
<path d="M127.999 50.4961V9.24023H125.027V50.4961H127.999Z" fill="#F0F0F0"/>
<path d="M112.363 50.5V9.24414H109.392V50.5H112.363Z" fill="#F0F0F0"/>
<path d="M141.489 49.2299V10.7227H140.659V49.2299H141.489Z" fill="#E0E0E0"/>
<path d="M58.168 42.2928C58.168 42.2928 52.1524 31.9313 60.5 23.6689C60.5 23.6689 62.678 25.0892 62.6452 26.9981C62.6124 28.9071 60.3098 29.3893 60.8051 30.9833C61.3004 32.5774 63.4684 34.1354 62.0449 35.454C60.6214 36.7725 62.2745 37.9402 62.1794 39.554C62.0843 41.1677 58.168 42.2928 58.168 42.2928Z" fill="#E0E0E0"/>
<path d="M59.1124 43.9887C59.1124 43.9887 61.5528 32.2529 51.0305 27.0508C51.0305 27.0508 49.4102 29.0844 50.0465 30.8851C50.6828 32.6858 53.0149 32.4169 53.0477 34.0864C53.0805 35.7559 51.516 37.9207 53.2806 38.721C55.0452 39.5213 53.848 41.1548 54.4483 42.657C55.0485 44.1593 59.1124 43.9887 59.1124 43.9887Z" fill="#E6E6E6"/>
<path d="M53.7559 41.0068C53.7559 41.0068 53.8608 51.1388 57.9116 51.1388C61.9624 51.1388 62.0641 41.0068 62.0641 41.0068H53.7559Z" fill="#F0F0F0"/>
<path d="M29.418 47.3281C29.418 47.3281 29.6443 51.1395 38.2936 51.1395C46.943 51.1395 47.1726 47.3281 47.1726 47.3281H29.418Z" fill="#E6E6E6"/>
<path d="M120.605 70.3076H116.04C115.471 70.3076 115.01 70.7687 115.01 71.3375V78.8881C115.01 79.4569 115.471 79.918 116.04 79.918H120.605C121.174 79.918 121.635 79.4569 121.635 78.8881V71.3375C121.635 70.7687 121.174 70.3076 120.605 70.3076Z" fill="#F0F0F0"/>
<path d="M132.716 73.4492H129.642C129.26 73.4492 128.95 73.7591 128.95 74.1413V79.2253C128.95 79.6075 129.26 79.9174 129.642 79.9174H132.716C133.098 79.9174 133.408 79.6075 133.408 79.2253V74.1413C133.408 73.7591 133.098 73.4492 132.716 73.4492Z" fill="#E6E6E6"/>
<path d="M133.175 72.8232H129.183C129.054 72.8232 128.95 72.9275 128.95 73.0561V73.3185C128.95 73.4471 129.054 73.5514 129.183 73.5514H133.175C133.303 73.5514 133.408 73.4471 133.408 73.3185V73.0561C133.408 72.9275 133.303 72.8232 133.175 72.8232Z" fill="#F0F0F0"/>
<path d="M104.441 74.5713C104.441 74.5713 104.605 79.9177 110.867 79.9177C117.128 79.9177 117.296 74.5713 117.296 74.5713H104.441Z" fill="#E6E6E6"/>
<path d="M88.8678 67.5098H98.3438V65.6402H88.8678V67.5098Z" fill="#E0E0E0"/>
<path d="M145.454 65.6436H98.3438V67.5132H145.454V65.6436Z" fill="#F0F0F0"/>
<path d="M88.8678 81.7871H98.3438V79.9175H88.8678V81.7871Z" fill="#E0E0E0"/>
<path d="M145.454 79.918H98.3438V81.7876H145.454V79.918Z" fill="#F0F0F0"/>
<path d="M92.2824 67.5098H90.5342V108.156H92.2824V67.5098Z" fill="#E0E0E0"/>
<path d="M100.092 67.5098H98.3438V108.156H100.092V67.5098Z" fill="#F0F0F0"/>
<path d="M139.394 67.5098H137.646V108.156H139.394V67.5098Z" fill="#E0E0E0"/>
<path d="M145.455 67.5098H143.707V108.156H145.455V67.5098Z" fill="#F0F0F0"/>
<path d="M29.418 53.5176H20.457V105.699H29.418V53.5176Z" fill="#E6E6E6"/>
<path d="M66.3678 105.695H22.1797V108.159H66.3678V105.695Z" fill="#E6E6E6"/>
<path d="M29.418 105.695H68.0859V53.5138L29.418 53.5138L29.418 105.695Z" fill="#F0F0F0"/>
<path d="M32.941 85.9795H64.5635V73.2334H32.941V85.9795Z" fill="#E6E6E6"/>
<path d="M32.941 101.048H64.5635V88.3018H32.941V101.048Z" fill="#E6E6E6"/>
<path d="M52.3028 74.6301H45.2016C44.9705 74.6292 44.749 74.537 44.5856 74.3736C44.4222 74.2101 44.33 73.9887 44.3291 73.7576C44.3291 73.5259 44.4209 73.3036 44.5844 73.1395C44.748 72.9754 44.9699 72.8827 45.2016 72.8818H52.3028C52.5345 72.8827 52.7564 72.9754 52.9199 73.1395C53.0834 73.3036 53.1753 73.5259 53.1753 73.7576C53.1744 73.9887 53.0822 74.2101 52.9188 74.3736C52.7553 74.537 52.5339 74.6292 52.3028 74.6301Z" fill="#F0F0F0"/>
<path d="M32.941 70.9082H64.5635V58.1621H32.941V70.9082Z" fill="#E6E6E6"/>
<path d="M52.3028 59.5617H45.2016C44.9699 59.5608 44.748 59.4682 44.5844 59.3041C44.4209 59.1399 44.3291 58.9177 44.3291 58.686C44.33 58.4548 44.4222 58.2334 44.5856 58.07C44.749 57.9065 44.9705 57.8143 45.2016 57.8135H52.3028C52.5339 57.8143 52.7553 57.9065 52.9188 58.07C53.0822 58.2334 53.1744 58.4548 53.1753 58.686C53.1753 58.9177 53.0834 59.1399 52.9199 59.3041C52.7564 59.4682 52.5345 59.5608 52.3028 59.5617Z" fill="#F0F0F0"/>
<path d="M52.3028 89.6984H45.2016C44.9705 89.6976 44.749 89.6054 44.5856 89.4419C44.4222 89.2785 44.33 89.0571 44.3291 88.8259C44.3291 88.5943 44.4209 88.372 44.5844 88.2079C44.748 88.0437 44.9699 87.9511 45.2016 87.9502H52.3028C52.5345 87.9511 52.7564 88.0437 52.9199 88.2079C53.0834 88.372 53.1753 88.5943 53.1753 88.8259C53.1744 89.0571 53.0822 89.2785 52.9188 89.4419C52.7553 89.6054 52.5339 89.6976 52.3028 89.6984Z" fill="#F0F0F0"/>
<path d="M69.2798 51.1387H29.418V53.5167H69.2798V51.1387Z" fill="#E6E6E6"/>
<path d="M19.2041 53.5137H29.418V51.1357H19.2041V53.5137Z" fill="#E0E0E0"/>
<path d="M39.4058 10.7266H24.9082V26.6477H39.4058V10.7266Z" fill="#E6E6E6"/>
<path d="M40.9775 10.7266H26.001V26.6477H40.9775V10.7266Z" fill="#F0F0F0"/>
<path d="M39.7207 25.3914V11.9795H27.2534V25.3914H39.7207Z" fill="#FAFAFA"/>
<path d="M36.7002 22.1405V15.2295H30.278V22.1405H36.7002Z" fill="#F0F0F0"/>
<path d="M54.6908 6.02637H43.6963V17.8376H54.6908V6.02637Z" fill="#E6E6E6"/>
<path d="M55.8584 6.02637H44.749V17.8376H55.8584V6.02637Z" fill="#F0F0F0"/>
<path d="M54.9268 16.9062V6.95801L45.6804 6.95801V16.9062H54.9268Z" fill="#FAFAFA"/>
<path d="M50.3023 9.41406L47.7734 13.7961H52.8312L50.3023 9.41406Z" fill="#F0F0F0"/>
<path d="M82.0002 122.971C117.123 122.971 145.596 121.308 145.596 119.258C145.596 117.207 117.123 115.545 82.0002 115.545C46.8772 115.545 18.4043 117.207 18.4043 119.258C18.4043 121.308 46.8772 122.971 82.0002 122.971Z" fill="#F5F5F5"/>
<path d="M42.7584 46.4494C42.4698 47.1054 42.1516 47.8139 41.8728 48.506C41.594 49.1981 41.3054 49.9098 41.0528 50.6183C40.5346 51.9995 40.1191 53.417 39.8097 54.8593L39.7146 55.3841L39.6818 55.5809C39.6818 55.6367 39.6818 55.7089 39.6621 55.7745C39.6496 56.0938 39.6562 56.4136 39.6818 56.7322C39.7441 57.4243 39.8556 58.1656 40.0098 58.9069C40.2853 60.3927 40.6363 61.9245 40.9938 63.4333L39.3111 64.0893C38.5268 62.6594 37.8588 61.1688 37.3136 59.6317C37.0264 58.8318 36.7941 58.0132 36.6182 57.1816C36.5197 56.7215 36.4583 56.2542 36.4346 55.7843C36.4346 55.6531 36.4346 55.5285 36.4346 55.3874C36.4346 55.2464 36.4346 55.0889 36.4575 54.9971L36.5231 54.3411C36.6211 53.4963 36.7712 52.6583 36.9725 51.8319C37.1562 51.0119 37.3923 50.2149 37.6285 49.4277C37.8647 48.6405 38.1599 47.8664 38.4715 47.1054C38.6256 46.7249 38.7994 46.3477 38.9503 45.9705C39.1012 45.5933 39.2783 45.2325 39.4882 44.8291L42.7584 46.4494Z" fill="#E4897B"/>
<path d="M40.9049 62.9902L42.1841 64.2399L39.3929 65.5519C39.3929 65.5519 38.7172 64.3678 39.1862 63.2986L40.9049 62.9902Z" fill="#E4897B"/>
<path d="M43.2177 66.1L40.8594 67.0643L39.3965 65.5391L42.1845 64.2402L43.2177 66.1Z" fill="#E4897B"/>
<path opacity="0.4" d="M90.9907 64.7545C86.3498 64.2334 81.9676 62.348 78.3981 59.3368C74.8285 56.3255 72.2319 52.3235 70.9365 47.8367C69.6411 43.3499 69.705 38.5798 71.1202 34.1293C72.5355 29.6789 75.2384 25.7479 78.8874 22.8334C82.5364 19.9189 86.9675 18.1517 91.6207 17.7552C96.2739 17.3587 100.94 18.3507 105.03 20.6059C109.119 22.861 112.448 26.278 114.596 30.4248C116.744 34.5717 117.614 39.2622 117.096 43.9035C116.752 46.9872 115.804 49.9728 114.306 52.6899C112.808 55.4069 110.789 57.8021 108.364 59.7385C105.94 61.6749 103.158 63.1145 100.177 63.9752C97.1955 64.8359 94.0741 65.1007 90.9907 64.7545Z" fill="#FAFAFA"/>
<path opacity="0.4" d="M108.171 22.6794L72.2555 51.3761C72.1046 51.0481 71.957 50.7201 71.8192 50.3921C70.9188 48.2504 70.3429 45.9863 70.1104 43.6747L101.133 18.8877C103.68 19.7373 106.061 21.02 108.171 22.6794Z" fill="#FAFAFA"/>
<path opacity="0.4" d="M116.461 35.2509L82.6929 62.2289C79.485 60.5566 76.705 58.1683 74.5684 55.249L111.439 25.7881C113.815 28.516 115.534 31.7536 116.461 35.2509Z" fill="#FAFAFA"/>
<path d="M67.0401 32.2603L66.7285 32.1554C67.2682 30.5629 67.9465 29.0209 68.7556 27.547L69.0409 27.7044C68.2425 29.1618 67.573 30.6863 67.0401 32.2603ZM71.022 24.6048L70.7564 24.4113C73.4519 20.7665 76.9797 17.8189 81.0457 15.8144L81.1933 16.1096C77.1735 18.0935 73.6862 21.0095 71.022 24.6146V24.6048ZM106.968 16.559C105.896 15.9841 104.787 15.4811 103.648 15.0534L103.766 14.7451C104.916 15.1828 106.036 15.6956 107.118 16.2802L106.968 16.559Z" fill="#F56E6E"/>
<path opacity="0.3" d="M67.0401 32.2603L66.7285 32.1554C67.2682 30.5629 67.9465 29.0209 68.7556 27.547L69.0409 27.7044C68.2425 29.1618 67.573 30.6863 67.0401 32.2603ZM71.022 24.6048L70.7564 24.4113C73.4519 20.7665 76.9797 17.8189 81.0457 15.8144L81.1933 16.1096C77.1735 18.0935 73.6862 21.0095 71.022 24.6146V24.6048ZM106.968 16.559C105.896 15.9841 104.787 15.4811 103.648 15.0534L103.766 14.7451C104.916 15.1828 106.036 15.6956 107.118 16.2802L106.968 16.559Z" fill="black"/>
<path d="M118.038 29.2226C115 22.9235 109.656 18.0347 103.111 15.5696C96.5672 13.1046 89.3253 13.2525 82.8871 15.9825C76.4489 18.7126 71.3082 23.8155 68.5307 30.2333C65.7531 36.6512 65.5518 43.8918 67.9684 50.4541C65.7773 51.2216 63.6126 52.0449 61.4609 52.8944C58.358 54.1255 55.2835 55.4112 52.2375 56.7517C49.1937 58.0997 46.1629 59.4741 43.1617 60.9107C41.6562 61.6159 40.1704 62.3605 38.6714 63.0821C37.8916 63.4171 37.1851 63.9019 36.5919 64.5089C36.2709 64.845 35.9882 65.2157 35.7489 65.6142C35.4571 66.0856 35.236 66.5972 35.0929 67.1329C34.8461 68.0981 34.9529 69.1197 35.3938 70.0131C35.8348 70.9065 36.5809 71.6126 37.4972 72.0037C38.006 72.2171 38.5429 72.3562 39.0913 72.4169C39.5545 72.4694 40.0221 72.4694 40.4853 72.4169C41.327 72.3148 42.1405 72.0484 42.8797 71.633C44.3655 70.8819 45.8612 70.157 47.3372 69.3862C50.2892 67.8807 53.2412 66.3096 56.1571 64.7155C59.073 63.1214 61.9922 61.4519 64.8393 59.7397C66.8073 58.5491 68.7949 57.3322 70.7433 56.0596C74.4845 61.9657 80.3546 66.2062 87.1372 67.9022C93.9198 69.5983 101.095 68.6199 107.176 65.1698C113.257 61.7197 117.777 56.0624 119.8 49.3702C121.824 42.678 121.195 35.4638 118.044 29.2226H118.038ZM103.127 60.5565C99.3149 62.438 95.0308 63.1469 90.8161 62.5938C86.6014 62.0406 82.6453 60.2501 79.4482 57.4486C76.251 54.6472 73.9563 50.9606 72.8543 46.8551C71.7522 42.7496 71.8922 38.4095 73.2567 34.3836C74.6211 30.3576 77.1487 26.8267 80.5198 24.2372C83.8909 21.6477 87.9542 20.116 92.1958 19.8356C96.4374 19.5553 100.667 20.539 104.349 22.6623C108.032 24.7857 111.002 27.9533 112.885 31.7646C114.135 34.2958 114.874 37.0484 115.06 39.8653C115.246 42.6822 114.876 45.5082 113.97 48.1818C113.064 50.8555 111.64 53.3244 109.779 55.4477C107.919 57.571 105.658 59.3069 103.127 60.5565Z" fill="#F56E6E"/>
<path opacity="0.3" d="M118.038 29.2226C115 22.9235 109.656 18.0347 103.111 15.5696C96.5672 13.1046 89.3253 13.2525 82.8871 15.9825C76.4489 18.7126 71.3082 23.8155 68.5307 30.2333C65.7531 36.6512 65.5518 43.8918 67.9684 50.4541C65.7773 51.2216 63.6126 52.0449 61.4609 52.8944C58.358 54.1255 55.2835 55.4112 52.2375 56.7517C49.1937 58.0997 46.1629 59.4741 43.1617 60.9107C41.6562 61.6159 40.1704 62.3605 38.6714 63.0821C37.8916 63.4171 37.1851 63.9019 36.5919 64.5089C36.2709 64.845 35.9882 65.2157 35.7489 65.6142C35.4571 66.0856 35.236 66.5972 35.0929 67.1329C34.8461 68.0981 34.9529 69.1197 35.3938 70.0131C35.8348 70.9065 36.5809 71.6126 37.4972 72.0037C38.006 72.2171 38.5429 72.3562 39.0913 72.4169C39.5545 72.4694 40.0221 72.4694 40.4853 72.4169C41.327 72.3148 42.1405 72.0484 42.8797 71.633C44.3655 70.8819 45.8612 70.157 47.3372 69.3862C50.2892 67.8807 53.2412 66.3096 56.1571 64.7155C59.073 63.1214 61.9922 61.4519 64.8393 59.7397C66.8073 58.5491 68.7949 57.3322 70.7433 56.0596C74.4845 61.9657 80.3546 66.2062 87.1372 67.9022C93.9198 69.5983 101.095 68.6199 107.176 65.1698C113.257 61.7197 117.777 56.0624 119.8 49.3702C121.824 42.678 121.195 35.4638 118.044 29.2226H118.038ZM103.127 60.5565C99.3149 62.438 95.0308 63.1469 90.8161 62.5938C86.6014 62.0406 82.6453 60.2501 79.4482 57.4486C76.251 54.6472 73.9563 50.9606 72.8543 46.8551C71.7522 42.7496 71.8922 38.4095 73.2567 34.3836C74.6211 30.3576 77.1487 26.8267 80.5198 24.2372C83.8909 21.6477 87.9542 20.116 92.1958 19.8356C96.4374 19.5553 100.667 20.539 104.349 22.6623C108.032 24.7857 111.002 27.9533 112.885 31.7646C114.135 34.2958 114.874 37.0484 115.06 39.8653C115.246 42.6822 114.876 45.5082 113.97 48.1818C113.064 50.8555 111.64 53.3244 109.779 55.4477C107.919 57.571 105.658 59.3069 103.127 60.5565Z" fill="black"/>
<path d="M51.8242 34.7367C51.8242 34.9302 51.9259 35.0877 52.0538 35.0877C52.1817 35.0877 52.2834 34.9302 52.2834 34.7367C52.2834 34.5432 52.1817 34.3857 52.0538 34.3857C51.9259 34.3857 51.8242 34.5563 51.8242 34.7367Z" fill="#263238"/>
<path d="M51.916 35.0869C52.1482 35.681 52.4605 36.2405 52.8443 36.7499C52.7116 36.8448 52.5597 36.9095 52.3994 36.9396C52.239 36.9696 52.0741 36.9642 51.916 36.9237V35.0869Z" fill="#DE5753"/>
<path d="M51.145 33.6569C51.1267 33.657 51.1086 33.6528 51.0922 33.6449C51.0757 33.6369 51.0612 33.6254 51.0499 33.611C51.0328 33.586 51.026 33.5553 51.0308 33.5254C51.0357 33.4955 51.0519 33.4686 51.0761 33.4503C51.2206 33.3408 51.3893 33.2677 51.5681 33.2375C51.7469 33.2072 51.9303 33.2206 52.1027 33.2765C52.1182 33.2807 52.1327 33.2881 52.1451 33.2983C52.1575 33.3084 52.1677 33.321 52.175 33.3354C52.1822 33.3497 52.1864 33.3654 52.1872 33.3814C52.188 33.3974 52.1855 33.4135 52.1797 33.4284C52.1739 33.4434 52.1651 33.457 52.1538 33.4684C52.1424 33.4797 52.1288 33.4886 52.1138 33.4944C52.0988 33.5001 52.0828 33.5027 52.0668 33.5019C52.0507 33.5011 52.0351 33.4969 52.0207 33.4897C51.8837 33.4477 51.7387 33.4391 51.5977 33.4648C51.4567 33.4905 51.324 33.5496 51.2106 33.6373C51.1911 33.6502 51.1683 33.657 51.145 33.6569Z" fill="#263238"/>
<path d="M45.1988 36.1963C45.5268 37.9576 45.8876 41.1884 44.6543 42.366C44.6543 42.366 45.1365 44.1536 48.4132 44.1536C52.0212 44.1536 50.1319 42.366 50.1319 42.366C48.1639 41.8936 48.2197 40.4373 48.5608 39.0663L45.1988 36.1963Z" fill="#E4897B"/>
<path d="M43.1817 43.2938C43.572 42.687 42.916 41.2143 42.916 41.2143C42.916 41.2143 48.7151 39.7547 51.0865 41.995C51.5785 42.4574 51.034 43.1397 51.034 43.1397L43.1817 43.2938Z" fill="#F56E6E"/>
<path opacity="0.1" d="M43.1817 43.2938C43.572 42.687 42.916 41.2143 42.916 41.2143C42.916 41.2143 48.7151 39.7547 51.0865 41.995C51.5785 42.4574 51.034 43.1397 51.034 43.1397L43.1817 43.2938Z" fill="black"/>
<path d="M33.5872 110.215C33.2822 110.215 32.7935 109.707 32.6492 109.517C32.643 109.507 32.6396 109.497 32.6396 109.485C32.6396 109.474 32.643 109.464 32.6492 109.454C32.6545 109.445 32.6621 109.438 32.6714 109.432C32.6806 109.427 32.6911 109.425 32.7016 109.425C32.7377 109.425 33.5413 109.497 33.7611 109.782C33.785 109.812 33.8021 109.847 33.8111 109.885C33.8202 109.922 33.821 109.961 33.8136 109.999C33.8107 110.048 33.7928 110.094 33.7622 110.133C33.7317 110.171 33.69 110.199 33.643 110.212L33.5872 110.215ZM32.8263 109.559C33.0657 109.835 33.4495 110.146 33.6135 110.107C33.6135 110.107 33.6791 110.091 33.6988 109.986C33.7031 109.964 33.7024 109.941 33.6967 109.92C33.691 109.898 33.6805 109.878 33.666 109.861C33.423 109.677 33.1306 109.57 32.8263 109.553V109.559Z" fill="#F56E6E"/>
<path d="M32.8629 109.553C32.804 109.559 32.7446 109.559 32.6857 109.553C32.6754 109.552 32.6655 109.549 32.6573 109.542C32.6491 109.536 32.643 109.527 32.6398 109.517C32.6352 109.508 32.6328 109.498 32.6328 109.488C32.6328 109.477 32.6352 109.467 32.6398 109.458C32.6628 109.438 33.1449 108.937 33.509 108.937C33.5526 108.936 33.5959 108.944 33.636 108.961C33.6762 108.978 33.7123 109.003 33.7419 109.035C33.7746 109.062 33.7969 109.1 33.8053 109.142C33.8136 109.183 33.8075 109.227 33.7878 109.265C33.6927 109.448 33.1909 109.553 32.8629 109.553ZM32.8202 109.438C33.1482 109.438 33.6238 109.337 33.7025 109.192C33.7025 109.192 33.7255 109.15 33.673 109.097C33.6539 109.077 33.6305 109.06 33.6045 109.049C33.5784 109.039 33.5503 109.034 33.5221 109.035C33.2533 109.097 33.0089 109.237 32.8202 109.438Z" fill="#F56E6E"/>
<path d="M55.2319 117.662C54.9833 117.66 54.7353 117.637 54.4907 117.593C54.4785 117.59 54.4676 117.584 54.4598 117.574C54.452 117.565 54.4478 117.553 54.448 117.54C54.4462 117.529 54.4477 117.517 54.4524 117.507C54.457 117.496 54.4646 117.487 54.4743 117.481C54.5103 117.462 55.35 116.979 55.7535 117.091C55.7909 117.099 55.8262 117.115 55.8572 117.138C55.8882 117.161 55.9143 117.189 55.9339 117.222C55.9596 117.259 55.9733 117.302 55.9733 117.347C55.9733 117.391 55.9596 117.435 55.9339 117.471C55.8387 117.619 55.5403 117.662 55.2319 117.662ZM54.6776 117.507C55.1237 117.573 55.7338 117.57 55.8453 117.412C55.8617 117.393 55.8748 117.357 55.8453 117.288C55.8202 117.247 55.7802 117.217 55.7338 117.206C55.4779 117.14 54.9695 117.357 54.6776 117.507Z" fill="#F56E6E"/>
<path d="M54.5043 117.595C54.4936 117.598 54.4822 117.598 54.4715 117.595C54.4624 117.589 54.4553 117.581 54.4512 117.571C54.4471 117.561 54.4462 117.55 54.4485 117.54C54.4708 117.198 54.6018 116.873 54.8225 116.611C54.8671 116.573 54.9195 116.544 54.9761 116.528C55.0327 116.512 55.0922 116.508 55.1505 116.516C55.3079 116.516 55.3538 116.611 55.3637 116.674C55.4063 116.946 54.8323 117.467 54.5404 117.599L54.5043 117.595ZM55.0914 116.611C55.0193 116.611 54.9493 116.636 54.8946 116.683C54.7092 116.891 54.5943 117.151 54.5666 117.428C54.8618 117.248 55.2554 116.841 55.2226 116.677C55.2226 116.677 55.2226 116.621 55.1111 116.611H55.0914Z" fill="#F56E6E"/>
<path d="M51.8535 117.536H54.2643L54.5038 111.957H52.093L51.8535 117.536Z" fill="#E4897B"/>
<path d="M30.3867 107.959L32.4006 109.278L36.8483 105.522L34.8311 104.2L30.3867 107.959Z" fill="#E4897B"/>
<path d="M32.7315 109.153L30.6389 107.438C30.6019 107.407 30.5555 107.391 30.5077 107.391C30.4598 107.391 30.4135 107.407 30.3765 107.438L28.6512 108.792C28.6095 108.825 28.5759 108.868 28.5527 108.916C28.5296 108.964 28.5176 109.016 28.5176 109.069C28.5176 109.123 28.5296 109.175 28.5527 109.223C28.5759 109.271 28.6095 109.313 28.6512 109.347C29.3925 109.934 29.7828 110.183 30.7045 110.937C31.2719 111.4 32.6725 112.817 33.463 113.456C34.2534 114.096 34.9783 113.407 34.7159 113.076C33.5384 111.584 33.0759 110.308 32.9414 109.517C32.9182 109.374 32.8436 109.245 32.7315 109.153Z" fill="#263238"/>
<path d="M54.2488 117.258H51.6248C51.5769 117.258 51.5305 117.274 51.4931 117.304C51.4556 117.334 51.4292 117.375 51.4181 117.422L50.9425 119.564C50.9306 119.616 50.9306 119.669 50.9426 119.721C50.9546 119.773 50.9782 119.822 51.0117 119.863C51.0452 119.905 51.0877 119.938 51.136 119.96C51.1842 119.983 51.237 119.994 51.2902 119.993C52.2381 119.977 53.6092 119.921 54.8031 119.921C56.1971 119.921 57.4041 119.997 59.0376 119.997C60.0216 119.997 60.3037 118.996 59.8871 118.908C58.0044 118.494 56.4628 118.452 54.8359 117.445C54.6613 117.329 54.458 117.264 54.2488 117.258Z" fill="#263238"/>
<path d="M39.905 43.0836C37.8156 44.0676 36.625 50.6604 36.625 50.6604L41.732 52.6973C42.4795 50.872 43.0837 48.9912 43.5392 47.0721C44.2412 44.0348 42.0436 42.0668 39.905 43.0836Z" fill="#263238"/>
<path d="M42.6141 46.7997C41.3513 48.0789 40.774 50.5848 40.5215 52.215L41.7449 52.7037C42.4712 50.9302 43.0633 49.1047 43.5161 47.2425C43.4079 46.5471 43.1389 46.2683 42.6141 46.7997Z" fill="#203048"/>
<path d="M53.838 43.0381C53.838 43.0381 56.403 45.9376 53.9823 63.8661H41.0952C41.0067 61.8981 42.2498 52.2385 40.3408 42.9167C41.765 42.6406 43.2059 42.4587 44.654 42.3723C46.4783 42.2639 48.3074 42.2639 50.1316 42.3723C51.3824 42.4981 52.6216 42.7207 53.838 43.0381Z" fill="#263238"/>
<path d="M55.0161 49.9983L52.8447 46.2559C52.4256 48.002 52.2544 49.7985 52.3363 51.5924C52.3954 52.8782 53.5729 57.6407 54.6323 58.3361C54.9134 55.566 55.0416 52.7825 55.0161 49.9983Z" fill="#203048"/>
<path d="M55.3181 45.5996C55.6461 47.1937 55.9741 48.8271 56.325 50.4278C56.676 52.0284 57.0401 53.6356 57.4632 55.187C57.5715 55.5708 57.6731 55.9644 57.7912 56.3318L57.8798 56.6139L57.9224 56.7549V56.7385C57.8994 56.709 57.8732 56.7057 57.8929 56.7385C58.0277 56.8857 58.2 56.9934 58.3915 57.0501C58.7015 57.1655 59.0208 57.2544 59.3459 57.3158C60.8967 57.5615 62.4668 57.6637 64.0363 57.6208L64.3479 59.4051C63.9084 59.5462 63.4984 59.6479 63.0655 59.7495C62.6325 59.8512 62.2061 59.9365 61.7699 60.0021C60.8673 60.1524 59.9522 60.2139 59.0376 60.1858C58.5293 60.1721 58.0237 60.1061 57.5288 59.989C56.8996 59.8513 56.3083 59.577 55.797 59.1854C55.463 58.9157 55.1873 58.5809 54.9868 58.2014C54.9343 58.103 54.8884 57.9915 54.8458 57.8963L54.7867 57.7422L54.6654 57.4142C54.4981 56.9976 54.3603 56.5876 54.2095 56.1776C53.6551 54.5376 53.1926 52.8812 52.7859 51.2281C52.3792 49.575 52.0282 47.9251 51.7363 46.2294L55.3181 45.5996Z" fill="#E4897B"/>
<path d="M50.6204 44.7961C49.9415 46.997 52.6934 53.5603 52.6934 53.5603L58.1743 52.1827C58.1743 52.1827 57.9644 48.7715 56.7147 46.0655C54.832 41.9851 51.4339 42.1557 50.6204 44.7961Z" fill="#263238"/>
<path d="M63.9897 57.6206L66.7187 57.5518L65.4067 60.3922C65.4067 60.3922 64.2948 60.5398 63.3829 59.0409L62.4219 57.8929L63.5272 57.6731C63.6794 57.6411 63.8342 57.6235 63.9897 57.6206Z" fill="#E4897B"/>
<path d="M68.4412 58.0798L66.8799 60.4349L65.4072 60.3922L66.7192 57.5518L68.4412 58.0798Z" fill="#E4897B"/>
<path d="M54.5042 111.957L54.3795 114.834H51.9688L52.0934 111.957H54.5042Z" fill="#CE6F64"/>
<path d="M34.8308 104.2L36.848 105.522L34.552 107.457L32.5381 106.139L34.8308 104.2Z" fill="#CE6F64"/>
<path d="M45.3493 34.3194C45.4936 36.704 45.4576 38.1111 46.6613 39.3345C48.4719 41.1812 51.4206 40.0889 51.9913 37.6945C52.5063 35.5494 52.1848 32.007 49.8495 31.0558C49.3342 30.8478 48.7745 30.7742 48.2229 30.8417C47.6714 30.9093 47.146 31.1159 46.6962 31.4421C46.2463 31.7684 45.8867 32.2035 45.6511 32.7068C45.4156 33.2101 45.3117 33.765 45.3493 34.3194Z" fill="#E4897B"/>
<path d="M42.542 33.9C43.1357 36.0747 44.533 38.5806 46.3402 38.7413C48.5838 38.9381 49.5973 36.6192 49.8925 34.2248C51.2373 33.3031 50.5321 32.2896 51.8802 32.1616C53.612 31.9976 53.0577 28.8292 50.7781 28.3208C50.7781 28.3208 51.5423 29.7476 49.9384 29.026C48.413 28.301 46.7184 28.0073 45.0381 28.1764C45.0381 28.1764 47.0848 29.1998 45.084 29.6557C43.0832 30.1116 42.4862 31.3449 43.4079 32.0895C43.4079 32.0928 42.1517 32.47 42.542 33.9Z" fill="#263238"/>
<path d="M48.5249 34.7163C48.569 35.309 48.8077 35.8706 49.2039 36.3136C49.7287 36.8942 50.2765 36.5334 50.3683 35.8282C50.4536 35.1951 50.2797 34.1291 49.6369 33.8077C48.994 33.4863 48.4823 34.0012 48.5249 34.7163Z" fill="#E4897B"/>
<path d="M49.4102 63.8656C49.4102 63.8656 51.7587 80.8724 49.9088 87.6882C46.9764 98.4794 35.7654 107.588 35.7654 107.588L31.9639 105.095C31.9639 105.095 41.5119 97.4036 42.6796 88.3672C43.7292 80.2557 41.0954 70.4453 41.0954 63.8623L49.4102 63.8656Z" fill="#F56E6E"/>
<path opacity="0.1" d="M49.4102 63.8656C49.4102 63.8656 51.7587 80.8724 49.9088 87.6882C46.9764 98.4794 35.7654 107.588 35.7654 107.588L31.9639 105.095C31.9639 105.095 41.5119 97.4036 42.6796 88.3672C43.7292 80.2557 41.0954 70.4453 41.0954 63.8623L49.4102 63.8656Z" fill="black"/>
<path d="M50.3808 73.5881C49.7556 72.8719 49.0673 72.2132 48.3242 71.6201C48.7244 77.1404 49.0524 85.3174 48.6883 91.1263C49.1778 90.0127 49.5856 88.8649 49.9085 87.6921C50.8105 84.3629 50.7153 78.6131 50.3808 73.5881Z" fill="#F56E6E"/>
<path opacity="0.3" d="M50.3808 73.5881C49.7556 72.8719 49.0673 72.2132 48.3242 71.6201C48.7244 77.1404 49.0524 85.3174 48.6883 91.1263C49.1778 90.0127 49.5856 88.8649 49.9085 87.6921C50.8105 84.3629 50.7153 78.6131 50.3808 73.5881Z" fill="black"/>
<path d="M37.2971 106.739C37.3135 106.739 35.8244 107.723 35.8244 107.723L31.6719 105.001L32.9839 103.915L37.2971 106.739Z" fill="#F56E6E"/>
<path opacity="0.3" d="M37.2971 106.739C37.3135 106.739 35.8244 107.723 35.8244 107.723L31.6719 105.001L32.9839 103.915L37.2971 106.739Z" fill="black"/>
<path d="M53.983 63.8662C53.983 63.8662 57.6107 79.2494 57.8665 86.5999C58.1551 94.8393 55.2786 114.277 55.2786 114.277H51.195C51.195 114.277 50.6931 94.6884 50.5127 87.1837C50.3127 79.0001 45.5107 63.8662 45.5107 63.8662H53.983Z" fill="#F56E6E"/>
<path opacity="0.1" d="M53.983 63.8662C53.983 63.8662 57.6107 79.2494 57.8665 86.5999C58.1551 94.8393 55.2786 114.277 55.2786 114.277H51.195C51.195 114.277 50.6931 94.6884 50.5127 87.1837C50.3127 79.0001 45.5107 63.8662 45.5107 63.8662H53.983Z" fill="black"/>
<path d="M56.0624 112.652C56.0821 112.652 55.8328 114.345 55.8328 114.345H50.8669L50.7324 112.833L56.0624 112.652Z" fill="#F56E6E"/>
<path opacity="0.3" d="M56.0624 112.652C56.0821 112.652 55.8328 114.345 55.8328 114.345H50.8669L50.7324 112.833L56.0624 112.652Z" fill="black"/>
<path d="M116.769 49.082C117.047 49.3444 117.267 49.5675 117.497 49.8168C117.726 50.066 117.943 50.3088 118.153 50.5613C118.579 51.0632 118.979 51.5912 119.366 52.1226C120.139 53.1885 120.827 54.3137 121.423 55.4879L121.544 55.7273C121.603 55.8432 121.653 55.9639 121.692 56.0881C121.771 56.3281 121.82 56.5772 121.836 56.8294C121.857 57.2741 121.796 57.7189 121.656 58.1414C121.416 58.8431 121.06 59.4995 120.603 60.0832C119.779 61.1416 118.807 62.0762 117.716 62.858L116.9 61.92C117.283 61.4706 117.684 60.9884 118.041 60.5063C118.405 60.0391 118.734 59.5458 119.025 59.0303C119.297 58.5805 119.499 58.0915 119.622 57.5805C119.665 57.3977 119.672 57.2086 119.645 57.0229C119.633 56.9605 119.614 56.8998 119.586 56.8425C119.574 56.8174 119.56 56.7932 119.543 56.7704L119.438 56.5932C118.806 55.5618 118.119 54.5644 117.382 53.6052C117.018 53.123 116.627 52.6605 116.234 52.2046C116.04 51.975 115.84 51.752 115.64 51.5289C115.44 51.3059 115.224 51.0828 115.05 50.909L116.769 49.082Z" fill="#E4897B"/>
<path d="M117.214 61.6443L114.764 61.2441L116.046 63.3893C116.046 63.3893 117.624 63.3335 118.073 62.4053L117.214 61.6443Z" fill="#E4897B"/>
<path d="M112.953 62.2347L114.121 63.9764L116.046 63.3893L114.764 61.2441L112.953 62.2347Z" fill="#E4897B"/>
<path d="M117.096 117.631C116.93 117.645 116.763 117.6 116.627 117.503C116.586 117.464 116.556 117.415 116.539 117.361C116.522 117.307 116.52 117.25 116.532 117.194C116.534 117.159 116.546 117.125 116.567 117.096C116.587 117.068 116.614 117.045 116.647 117.03C116.932 116.902 117.68 117.381 117.765 117.437C117.775 117.443 117.782 117.452 117.787 117.463C117.791 117.473 117.791 117.485 117.788 117.496C117.787 117.507 117.782 117.518 117.774 117.526C117.767 117.534 117.757 117.54 117.746 117.542C117.533 117.596 117.315 117.626 117.096 117.631ZM116.768 117.122C116.744 117.119 116.72 117.119 116.696 117.122C116.682 117.129 116.669 117.14 116.661 117.153C116.652 117.166 116.647 117.182 116.647 117.198C116.638 117.234 116.639 117.273 116.649 117.309C116.66 117.345 116.679 117.378 116.706 117.404C116.83 117.516 117.152 117.532 117.582 117.447C117.335 117.284 117.059 117.174 116.768 117.122Z" fill="#F56E6E"/>
<path d="M117.753 117.539H117.723C117.49 117.405 117.041 116.883 117.097 116.598C117.107 116.553 117.132 116.512 117.168 116.483C117.203 116.453 117.247 116.436 117.293 116.434C117.338 116.427 117.383 116.431 117.425 116.445C117.468 116.458 117.507 116.481 117.539 116.512C117.808 116.749 117.812 117.457 117.812 117.496C117.811 117.506 117.808 117.516 117.803 117.525C117.798 117.533 117.791 117.54 117.782 117.546L117.753 117.539ZM117.333 116.555H117.306C117.234 116.555 117.218 116.594 117.211 116.624C117.179 116.791 117.457 117.191 117.69 117.378C117.696 117.103 117.617 116.833 117.464 116.604C117.444 116.586 117.421 116.572 117.395 116.564C117.37 116.555 117.343 116.552 117.316 116.555H117.333Z" fill="#F56E6E"/>
<path d="M105.918 117.631C105.708 117.651 105.499 117.598 105.324 117.48C105.285 117.445 105.254 117.402 105.236 117.353C105.217 117.303 105.21 117.251 105.216 117.198C105.218 117.166 105.228 117.136 105.245 117.109C105.263 117.082 105.286 117.06 105.314 117.044C105.619 116.874 106.597 117.372 106.708 117.434C106.719 117.441 106.727 117.45 106.732 117.461C106.737 117.472 106.739 117.485 106.738 117.497C106.736 117.508 106.731 117.519 106.722 117.527C106.714 117.535 106.703 117.541 106.692 117.543C106.437 117.597 106.178 117.626 105.918 117.631ZM105.482 117.123C105.444 117.12 105.407 117.128 105.373 117.146C105.362 117.151 105.352 117.16 105.345 117.171C105.338 117.182 105.334 117.195 105.334 117.208C105.329 117.242 105.332 117.277 105.344 117.31C105.355 117.342 105.374 117.372 105.4 117.395C105.55 117.53 105.954 117.553 106.498 117.461C106.181 117.292 105.837 117.177 105.482 117.123Z" fill="#F56E6E"/>
<path d="M106.683 117.539H106.656C106.364 117.408 105.784 116.883 105.83 116.598C105.83 116.533 105.889 116.451 106.049 116.434C106.108 116.428 106.168 116.434 106.224 116.451C106.28 116.469 106.333 116.497 106.377 116.536C106.686 116.792 106.745 117.454 106.745 117.484C106.746 117.494 106.745 117.504 106.741 117.513C106.737 117.522 106.73 117.53 106.722 117.536C106.709 117.542 106.696 117.543 106.683 117.539ZM106.095 116.555H106.059C105.954 116.555 105.948 116.608 105.945 116.621C105.918 116.788 106.312 117.205 106.601 117.385C106.572 117.105 106.457 116.84 106.273 116.628C106.223 116.585 106.161 116.56 106.095 116.555Z" fill="#F56E6E"/>
<path d="M110.559 41.542C110.464 43.0246 110.208 46.0356 111.346 46.8687C111.346 46.8687 111.139 48.3874 108.453 48.7416C105.501 49.1254 106.849 47.4591 106.849 47.4591C108.414 46.8622 108.214 45.6715 107.787 44.5826L110.559 41.542Z" fill="#E4897B"/>
<path d="M104.448 38.9204C104.432 38.9204 104.416 38.9169 104.401 38.9101C104.387 38.9033 104.374 38.8934 104.363 38.881C104.269 38.7698 104.151 38.6821 104.017 38.6251C103.883 38.5682 103.738 38.5435 103.592 38.553C103.577 38.5558 103.561 38.5555 103.546 38.552C103.531 38.5485 103.517 38.5419 103.504 38.5327C103.491 38.5235 103.481 38.5119 103.473 38.4984C103.465 38.485 103.46 38.4701 103.458 38.4546C103.454 38.4238 103.463 38.3927 103.482 38.3681C103.501 38.3436 103.529 38.3275 103.56 38.3234C103.745 38.3078 103.931 38.3372 104.102 38.4092C104.274 38.4811 104.425 38.5935 104.544 38.7367C104.558 38.7538 104.567 38.7746 104.57 38.7966C104.573 38.8187 104.569 38.8411 104.56 38.8613C104.551 38.8815 104.536 38.8987 104.517 38.9109C104.499 38.9231 104.477 38.9298 104.455 38.9302L104.448 38.9204Z" fill="#263238"/>
<path d="M103.937 40.374C103.821 40.8445 103.641 41.2969 103.402 41.7188C103.512 41.7778 103.633 41.8118 103.757 41.8186C103.881 41.8254 104.005 41.8048 104.121 41.7582L103.937 40.374Z" fill="#DE5753"/>
<path d="M104.068 40.0126C104.094 40.2094 104.012 40.38 103.884 40.3997C103.756 40.4193 103.628 40.2685 103.606 40.0717C103.583 39.8749 103.661 39.7043 103.789 39.6879C103.917 39.6715 104.045 39.8027 104.068 40.0126Z" fill="#263238"/>
<path d="M103.848 39.6917L103.359 39.6162C103.359 39.6162 103.648 39.9541 103.848 39.6917Z" fill="#263238"/>
<path d="M109.385 117.487H106.925L106.761 111.796H109.221L109.385 117.487Z" fill="#E4897B"/>
<path d="M120.553 117.487H118.093L117.303 111.796H119.763L120.553 117.487Z" fill="#E4897B"/>
<path d="M117.943 117.211H120.704C120.751 117.211 120.797 117.227 120.833 117.258C120.868 117.289 120.892 117.332 120.898 117.378L121.226 119.566C121.232 119.621 121.226 119.677 121.209 119.73C121.192 119.783 121.164 119.831 121.127 119.872C121.09 119.913 121.044 119.946 120.993 119.969C120.943 119.991 120.888 120.003 120.832 120.002C119.871 119.986 119.406 119.93 118.192 119.93C117.444 119.93 116.352 120.006 115.322 120.006C114.292 120.006 114.236 118.985 114.666 118.894C116.591 118.48 116.896 117.91 117.542 117.362C117.655 117.268 117.796 117.215 117.943 117.211Z" fill="#263238"/>
<path d="M106.843 117.211H109.601C109.649 117.21 109.695 117.227 109.731 117.258C109.767 117.289 109.791 117.331 109.798 117.378L110.126 119.566C110.132 119.621 110.126 119.677 110.109 119.73C110.092 119.783 110.064 119.831 110.027 119.872C109.99 119.913 109.945 119.946 109.894 119.969C109.843 119.991 109.788 120.003 109.733 120.002C108.772 119.986 108.306 119.93 107.092 119.93C106.344 119.93 104.796 120.006 103.766 120.006C102.736 120.006 102.681 118.985 103.11 118.894C105.036 118.48 105.793 117.91 106.443 117.362C106.556 117.268 106.696 117.215 106.843 117.211Z" fill="#263238"/>
<path d="M106.761 111.796L106.846 114.732H109.306L109.221 111.796H106.761Z" fill="#CE6F64"/>
<path d="M119.763 111.796H117.303L117.713 114.732H120.169L119.763 111.796Z" fill="#CE6F64"/>
<path d="M110.592 38.4719C110.76 40.9056 110.881 41.9323 109.825 43.3328C108.234 45.4353 105.21 45.1106 104.318 42.7752C103.514 40.6727 103.376 37.0483 105.613 35.7757C106.105 35.4937 106.661 35.342 107.228 35.3352C107.796 35.3284 108.355 35.4665 108.854 35.7366C109.353 36.0067 109.774 36.3997 110.078 36.8784C110.383 37.3571 110.559 37.9056 110.592 38.4719Z" fill="#E4897B"/>
<path d="M112.009 40.7313C113.373 41.4923 114.387 39.6161 114.387 39.6161C114.387 39.6161 111.94 39.8818 112.16 38.4255C112.448 36.4935 111.064 34.1451 107.594 34.4468C107.4 34.4632 107.217 34.4862 107.036 34.5157C106.673 34.3435 106.262 34.299 105.871 34.3895C105.479 34.48 105.129 34.7002 104.878 35.0143C103.894 35.0963 102.566 36.2705 103.468 37.8219C103.531 37.6437 103.629 37.4798 103.756 37.3398C103.832 38.2483 104.626 39.6915 105.616 39.7867C105.829 41.0298 105.003 42.4697 105.288 43.7686C105.711 45.6415 108.87 46.0646 108.87 46.0646C108.761 45.8307 108.72 45.5708 108.753 45.3148C108.785 45.0589 108.89 44.8173 109.054 44.6181C111.199 45.6021 112.612 44.6411 112.612 44.6411C111.15 44.0966 111.592 43.1257 111.592 43.1257C112.097 43.35 112.67 43.3697 113.189 43.1807C113.708 42.9917 114.134 42.6086 114.377 42.1122C113.891 42.1353 113.409 42.0171 112.989 41.7721C112.568 41.527 112.228 41.1656 112.009 40.7313Z" fill="#263238"/>
<path d="M106.472 40.1603C106.478 40.3939 106.437 40.6263 106.353 40.8441C106.269 41.062 106.142 41.261 105.98 41.4297C105.547 41.879 105.016 41.5641 104.872 40.9901C104.744 40.4719 104.816 39.6158 105.38 39.3797C105.504 39.3309 105.638 39.3139 105.771 39.3303C105.903 39.3466 106.029 39.3959 106.138 39.4734C106.247 39.551 106.334 39.6545 106.392 39.7744C106.451 39.8944 106.478 40.027 106.472 40.1603Z" fill="#E4897B"/>
<path d="M108.516 62.8356C108.516 62.8356 109.139 79.0257 110.621 88.5311C111.815 96.2129 117.119 114.161 117.119 114.161H120.471C120.471 114.161 117.706 96.8263 117.099 89.2331C115.564 70.0155 119.55 65.8893 115.787 61.8877L108.516 62.8356Z" fill="#263238"/>
<path d="M111.317 67.9554C111.317 67.9554 109.802 67.693 108.916 70.5794C109.244 76.0472 109.805 83.3026 110.622 88.5309C110.802 89.6953 111.078 91.0991 111.415 92.6374C110.776 83.401 111.317 67.9554 111.317 67.9554Z" fill="#161F33"/>
<path d="M105.902 63.1767C105.902 63.1767 103.14 81.0888 103.301 88.5836C103.468 96.3801 106.325 114.168 106.325 114.168H109.647C109.647 114.168 109.123 96.8426 109.415 89.1871C109.743 80.8395 113.151 62.2354 113.151 62.2354L105.902 63.1767Z" fill="#263238"/>
<path d="M120.957 114.318H116.499L116.151 112.822L120.924 112.855L120.957 114.318Z" fill="#F56E6E"/>
<path opacity="0.2" d="M120.957 114.318H116.499L116.151 112.822L120.924 112.855L120.957 114.318Z" fill="black"/>
<path d="M115.62 46.8712C116.902 46.9959 118.851 50.64 118.851 50.64L115.613 53.1229C115.613 53.1229 112.934 50.7712 113.252 49.4493C113.583 48.075 114.39 46.7564 115.62 46.8712Z" fill="#F56E6E"/>
<path opacity="0.1" d="M115.62 46.8712C116.902 46.9959 118.851 50.64 118.851 50.64L115.613 53.1229C115.613 53.1229 112.934 50.7712 113.252 49.4493C113.583 48.075 114.39 46.7564 115.62 46.8712Z" fill="black"/>
<path d="M114.653 48.4396C114.326 48.3515 113.988 48.3139 113.649 48.3281C113.477 48.6867 113.344 49.0628 113.252 49.4499C112.924 50.7619 115.614 53.1235 115.614 53.1235L115.853 52.9398L114.653 48.4396Z" fill="#F56E6E"/>
<path opacity="0.3" d="M114.653 48.4396C114.326 48.3515 113.988 48.3139 113.649 48.3281C113.477 48.6867 113.344 49.0628 113.252 49.4499C112.924 50.7619 115.614 53.1235 115.614 53.1235L115.853 52.9398L114.653 48.4396Z" fill="black"/>
<path d="M104.803 51.9391C103.868 54.304 102.884 56.7082 102.1 59.0796C102.047 59.2305 102.005 59.3748 101.959 59.5224L101.847 59.8865C101.817 59.9937 101.817 60.1073 101.847 60.2145C102.033 60.6246 102.326 60.9762 102.697 61.2313C103.678 61.9349 104.746 62.5072 105.875 62.9336L105.58 64.1407C104.191 63.9575 102.848 63.5194 101.618 62.8484C100.861 62.444 100.244 61.8196 99.8499 61.0575C99.6233 60.5704 99.5446 60.0276 99.6236 59.4962C99.631 59.4311 99.642 59.3666 99.6563 59.3027L99.6891 59.1649L99.7449 58.9156C99.7843 58.7484 99.8236 58.5876 99.8663 58.4236C100.194 57.1116 100.614 55.8652 101.057 54.6287C101.5 53.3921 101.962 52.172 102.484 50.9551L104.803 51.9391Z" fill="#E4897B"/>
<path d="M102.812 48.6194C102.812 48.6194 101.703 49.1803 105.902 63.176L115.801 61.8837C115.106 57.8756 114.778 55.3926 115.621 46.8712C114.201 46.7695 112.776 46.7695 111.357 46.8712C109.845 46.959 108.342 47.1564 106.86 47.4616C104.961 47.8847 102.812 48.6194 102.812 48.6194Z" fill="#F56E6E"/>
<path opacity="0.1" d="M102.812 48.6194C102.812 48.6194 101.703 49.1803 105.902 63.176L115.801 61.8837C115.106 57.8756 114.778 55.3926 115.621 46.8712C114.201 46.7695 112.776 46.7695 111.357 46.8712C109.845 46.959 108.342 47.1564 106.86 47.4616C104.961 47.8847 102.812 48.6194 102.812 48.6194Z" fill="black"/>
<path d="M115.872 61.284L116.44 62.1072C116.483 62.1728 116.41 62.2516 116.299 62.268L105.918 63.6259C105.829 63.6259 105.747 63.6029 105.734 63.5472L105.531 62.6714C105.514 62.6124 105.586 62.55 105.685 62.5369L115.708 61.2249C115.739 61.2201 115.769 61.223 115.798 61.2333C115.827 61.2436 115.852 61.2611 115.872 61.284Z" fill="#F56E6E"/>
<path opacity="0.2" d="M115.872 61.284L116.44 62.1072C116.483 62.1728 116.41 62.2516 116.299 62.268L105.918 63.6259C105.829 63.6259 105.747 63.6029 105.734 63.5472L105.531 62.6714C105.514 62.6124 105.586 62.55 105.685 62.5369L115.708 61.2249C115.739 61.2201 115.769 61.223 115.798 61.2333C115.827 61.2436 115.852 61.2611 115.872 61.284Z" fill="black"/>
<path d="M114.672 62.5793L114.941 62.5432C114.993 62.5432 115.029 62.5039 115.023 62.4711L114.747 61.3362C114.737 61.3168 114.72 61.3017 114.7 61.2933C114.679 61.2849 114.657 61.2839 114.636 61.2903L114.367 61.3231C114.311 61.3231 114.275 61.3624 114.285 61.3985L114.56 62.5301C114.567 62.5662 114.619 62.5859 114.672 62.5793Z" fill="#263238"/>
<path d="M108.165 63.419L108.434 63.3829C108.486 63.3829 108.526 63.3435 108.516 63.3107L108.24 62.1758C108.23 62.1567 108.213 62.1415 108.193 62.1327C108.173 62.1238 108.15 62.1217 108.129 62.1266L107.86 62.1627C107.807 62.1627 107.768 62.2021 107.778 62.2349L108.053 63.3698C108.06 63.419 108.112 63.4386 108.165 63.419Z" fill="#263238"/>
<path d="M103.274 53.369C103.547 54.6351 103.93 56.239 104.491 58.2694L104.613 53.123L103.274 53.369Z" fill="#F56E6E"/>
<path opacity="0.3" d="M103.274 53.369C103.547 54.6351 103.93 56.239 104.491 58.2694L104.613 53.123L103.274 53.369Z" fill="black"/>
<path d="M102.812 48.6197C101.582 49.115 100.516 53.3233 100.516 53.3233L104.747 55.3831C104.747 55.3831 106.79 50.2368 105.875 49.2331C104.96 48.2294 104.229 48.0523 102.812 48.6197Z" fill="#F56E6E"/>
<path opacity="0.1" d="M102.812 48.6197C101.582 49.115 100.516 53.3233 100.516 53.3233L104.747 55.3831C104.747 55.3831 106.79 50.2368 105.875 49.2331C104.96 48.2294 104.229 48.0523 102.812 48.6197Z" fill="black"/>
<path d="M110.214 114.318H105.757L105.409 112.822L110.372 112.855L110.214 114.318Z" fill="#F56E6E"/>
<path opacity="0.2" d="M110.214 114.318H105.757L105.409 112.822L110.372 112.855L110.214 114.318Z" fill="black"/>
<path d="M105.944 62.5271L105.586 62.3795C105.498 62.3437 105.403 62.3319 105.309 62.3451C105.215 62.3583 105.126 62.3962 105.051 62.4548C104.977 62.5134 104.919 62.5907 104.884 62.6789C104.849 62.767 104.838 62.8629 104.852 62.9567L105.111 64.6656C105.123 64.7512 105.154 64.8329 105.202 64.9048C105.25 64.9768 105.313 65.0373 105.387 65.0818C105.461 65.1264 105.544 65.1539 105.63 65.1625C105.717 65.1711 105.803 65.1605 105.885 65.1314C106.015 65.0841 106.137 65.0166 106.246 64.9313C106.364 64.8329 106.458 64.7081 106.52 64.5668C106.581 64.4255 106.609 64.2717 106.6 64.1179L106.564 63.4094C106.557 63.2179 106.495 63.0325 106.385 62.8758C106.275 62.719 106.122 62.5978 105.944 62.5271Z" fill="#E4897B"/>
</svg>
