<?xml version="1.0" encoding="iso-8859-1"?>
<!-- Generator: Adobe Illustrator 19.0.0, SVG Export Plug-In . SVG Version: 6.00 Build 0)  -->
<svg version="1.1" id="Layer_1" xmlns="http://www.w3.org/2000/svg" xmlns:xlink="http://www.w3.org/1999/xlink" x="0px" y="0px"
	 viewBox="0 0 511.999 511.999" style="enable-background:new 0 0 511.999 511.999;" xml:space="preserve">
<circle style="fill:#CFF09E;" cx="255.997" cy="255.997" r="167.991"/>
<g>
	<path style="fill:#507C5C;" d="M255.999,0c-7.663,0-13.877,6.214-13.877,13.877s6.214,13.877,13.877,13.877
		c57.945,0,110.905,21.716,151.199,57.422l-32.782,32.782c-32.95-28.356-74.49-43.825-118.416-43.825
		c-45.157,0-86.517,16.549-118.35,43.892L95.044,75.42c-0.076-0.076-0.16-0.14-0.237-0.214c-0.071-0.074-0.13-0.151-0.203-0.223
		c-5.42-5.417-14.204-5.417-19.626,0C26.628,123.336,0,187.622,0,255.999c0,141.159,114.842,255.999,255.999,255.999
		c68.379,0,132.666-26.628,181.02-74.981c48.352-48.352,74.98-112.64,74.98-181.018C512,114.842,397.158,0,255.999,0z
		 M365.043,147.093c5.415,5.424,14.2,5.429,19.624,0.012c0.402-0.402,0.765-0.827,1.107-1.263c0.029-0.029,0.062-0.053,0.092-0.083
		l40.958-40.958c32.834,37.053,53.823,84.82,56.987,137.322h-15.439c-7.663,0-13.877,6.214-13.877,13.877
		s6.214,13.877,13.877,13.877h15.445c-3.047,51.144-22.905,99.082-56.914,137.401l-32.928-32.928
		c27.344-31.832,43.892-73.192,43.892-118.35c0-7.663-6.214-13.877-13.877-13.877c-7.663,0-13.877,6.214-13.877,13.877
		c0,84.978-69.135,154.114-154.114,154.114s-154.114-69.135-154.114-154.114s69.135-154.114,154.114-154.114
		C297.201,101.887,335.926,117.94,365.043,147.093z M255.999,453.157c-7.663,0-13.877,6.214-13.877,13.877v16.778
		c-52.502-3.165-100.27-24.154-137.322-56.987l32.85-32.85c31.832,27.344,73.192,43.892,118.35,43.892s86.517-16.549,118.35-43.892
		l32.928,32.928c-38.32,34.01-86.257,53.866-137.401,56.914v-16.784C269.876,459.37,263.663,453.157,255.999,453.157z
		 M28.188,269.876h46.47c3.011,39.73,18.85,75.932,43.367,104.473l-32.85,32.85C52.341,370.146,31.353,322.38,28.188,269.876z
		 M85.097,104.722l32.928,32.928c-24.517,28.542-40.356,64.742-43.367,104.473H28.182C31.229,190.98,51.087,143.042,85.097,104.722z
		"/>
	<path style="fill:#507C5C;" d="M246.272,256.595c9.995-8.545,15.885-21.184,15.885-34.36c0-24.902-20.259-45.16-45.162-45.16
		l-36.783,0.004c-4.626,0-8.377,3.751-8.377,8.377v2.424v13.871v129.948c0,1.782,1.445,3.226,3.226,3.226h15.149
		c1.782,0,3.226-1.445,3.226-3.226V267.4h23.56l0.222-0.004c12.869,0.119,23.338,10.688,23.338,23.557v40.745
		c0,1.782,1.445,3.226,3.226,3.226h15.149c1.782,0,3.226-1.445,3.226-3.226v-40.745
		C262.158,277.779,256.267,265.138,246.272,256.595z M217.247,245.794h-23.81V198.68h23.56l0.235-0.003
		c15.821,0.154,28.013,16.108,21.566,32.702C235.691,239.375,225.823,245.794,217.247,245.794z"/>
	<path style="fill:#507C5C;" d="M312.368,270.99l-13.562-1.07c-8.583-1.768-8.583-7.081-8.583-9.941c0-3.476,0.491-7.35,6.364-9.346
		c1.102-0.376,2.344-0.565,3.693-0.565h9.912c1.223,0,2.435,0.207,3.662,0.636l0.092,0.029c3.897,1.407,5.821,3.894,6.063,7.828
		c0.162,2.623,2.262,4.676,4.779,4.676h10.543c1.284,0,2.488-0.522,3.391-1.47c0.952-0.996,1.461-2.377,1.397-3.787
		c-0.618-13.595-7.578-23.515-19.597-27.936c-3.691-1.359-7.781-2.047-12.156-2.047h-6.428c-4.674,0-9.038,0.787-12.97,2.34
		c-12.17,4.81-18.871,15.336-18.871,29.643c0,17.514,10.391,29.459,27.796,31.951l13.562,1.07c8.583,1.768,8.583,7.081,8.583,9.941
		c0,3.129-0.383,6.647-4.957,8.785c-1.597,0.747-3.446,1.127-5.494,1.127h-8.923c-2.014,0-3.833-0.368-5.408-1.089
		c-3.194-1.467-4.783-3.818-5.003-7.402c-0.162-2.623-2.262-4.676-4.779-4.676h-10.542c-1.284,0-2.49,0.522-3.393,1.47
		c-0.952,0.996-1.461,2.377-1.397,3.787c0.618,13.594,7.578,23.515,19.597,27.938c3.691,1.357,7.781,2.045,12.156,2.045h6.429
		c4.674,0,9.038-0.787,12.968-2.34c12.17-4.807,18.872-15.335,18.872-29.643C340.164,285.428,329.773,273.482,312.368,270.99z"/>
</g>
<g>
</g>
<g>
</g>
<g>
</g>
<g>
</g>
<g>
</g>
<g>
</g>
<g>
</g>
<g>
</g>
<g>
</g>
<g>
</g>
<g>
</g>
<g>
</g>
<g>
</g>
<g>
</g>
<g>
</g>
</svg>
